<svg xmlns="http://www.w3.org/2000/svg" viewBox="0 0 250 250"><rect x="80" y="0" width="10" height="10" rx="3" fill="#1a1a1c"/><rect x="90" y="0" width="10" height="10" rx="3" fill="#1a1a1c"/><rect x="110" y="0" width="10" height="10" rx="3" fill="#1a1a1c"/><rect x="130" y="0" width="10" height="10" rx="3" fill="#1a1a1c"/><rect x="140" y="0" width="10" height="10" rx="3" fill="#1a1a1c"/><rect x="160" y="0" width="10" height="10" rx="3" fill="#1a1a1c"/><rect x="80" y="10" width="10" height="10" rx="3" fill="#1a1a1c"/><rect x="90" y="10" width="10" height="10" rx="3" fill="#1a1a1c"/><rect x="100" y="10" width="10" height="10" rx="3" fill="#1a1a1c"/><rect x="110" y="10" width="10" height="10" rx="3" fill="#1a1a1c"/><rect x="130" y="10" width="10" height="10" rx="3" fill="#1a1a1c"/><rect x="140" y="10" width="10" height="10" rx="3" fill="#1a1a1c"/><rect x="90" y="20" width="10" height="10" rx="3" fill="#1a1a1c"/><rect x="110" y="20" width="10" height="10" rx="3" fill="#1a1a1c"/><rect x="130" y="20" width="10" height="10" rx="3" fill="#1a1a1c"/><rect x="140" y="20" width="10" height="10" rx="3" fill="#1a1a1c"/><rect x="150" y="20" width="10" height="10" rx="3" fill="#1a1a1c"/><rect x="160" y="20" width="10" height="10" rx="3" fill="#1a1a1c"/><rect x="90" y="30" width="10" height="10" rx="3" fill="#1a1a1c"/><rect x="120" y="30" width="10" height="10" rx="3" fill="#1a1a1c"/><rect x="140" y="30" width="10" height="10" rx="3" fill="#1a1a1c"/><rect x="150" y="30" width="10" height="10" rx="3" fill="#1a1a1c"/><rect x="160" y="30" width="10" height="10" rx="3" fill="#1a1a1c"/><rect x="90" y="40" width="10" height="10" rx="3" fill="#1a1a1c"/><rect x="100" y="40" width="10" height="10" rx="3" fill="#1a1a1c"/><rect x="130" y="40" width="10" height="10" rx="3" fill="#1a1a1c"/><rect x="160" y="40" width="10" height="10" rx="3" fill="#1a1a1c"/><rect x="120" y="50" width="10" height="10" rx="3" fill="#1a1a1c"/><rect x="140" y="50" width="10" height="10" rx="3" fill="#1a1a1c"/><rect x="150" y="50" width="10" height="10" rx="3" fill="#1a1a1c"/><rect x="80" y="60" width="10" height="10" rx="3" fill="#1a1a1c"/><rect x="100" y="60" width="10" height="10" rx="3" fill="#1a1a1c"/><rect x="120" y="60" width="10" height="10" rx="3" fill="#1a1a1c"/><rect x="140" y="60" width="10" height="10" rx="3" fill="#1a1a1c"/><rect x="160" y="60" width="10" height="10" rx="3" fill="#1a1a1c"/><rect x="80" y="70" width="10" height="10" rx="3" fill="#1a1a1c"/><rect x="100" y="70" width="10" height="10" rx="3" fill="#1a1a1c"/><rect x="150" y="70" width="10" height="10" rx="3" fill="#1a1a1c"/><rect x="60" y="80" width="10" height="10" rx="3" fill="#1a1a1c"/><rect x="80" y="80" width="10" height="10" rx="3" fill="#1a1a1c"/><rect x="130" y="80" width="10" height="10" rx="3" fill="#1a1a1c"/><rect x="140" y="80" width="10" height="10" rx="3" fill="#1a1a1c"/><rect x="160" y="80" width="10" height="10" rx="3" fill="#1a1a1c"/><rect x="180" y="80" width="10" height="10" rx="3" fill="#1a1a1c"/><rect x="190" y="80" width="10" height="10" rx="3" fill="#1a1a1c"/><rect x="200" y="80" width="10" height="10" rx="3" fill="#1a1a1c"/><rect x="220" y="80" width="10" height="10" rx="3" fill="#1a1a1c"/><rect x="230" y="80" width="10" height="10" rx="3" fill="#1a1a1c"/><rect x="240" y="80" width="10" height="10" rx="3" fill="#1a1a1c"/><rect x="10" y="90" width="10" height="10" rx="3" fill="#1a1a1c"/><rect x="20" y="90" width="10" height="10" rx="3" fill="#1a1a1c"/><rect x="80" y="90" width="10" height="10" rx="3" fill="#1a1a1c"/><rect x="90" y="90" width="10" height="10" rx="3" fill="#1a1a1c"/><rect x="100" y="90" width="10" height="10" rx="3" fill="#1a1a1c"/><rect x="130" y="90" width="10" height="10" rx="3" fill="#1a1a1c"/><rect x="140" y="90" width="10" height="10" rx="3" fill="#1a1a1c"/><rect x="150" y="90" width="10" height="10" rx="3" fill="#1a1a1c"/><rect x="160" y="90" width="10" height="10" rx="3" fill="#1a1a1c"/><rect x="190" y="90" width="10" height="10" rx="3" fill="#1a1a1c"/><rect x="200" y="90" width="10" height="10" rx="3" fill="#1a1a1c"/><rect x="210" y="90" width="10" height="10" rx="3" fill="#1a1a1c"/><rect x="220" y="90" width="10" height="10" rx="3" fill="#1a1a1c"/><rect x="40" y="100" width="10" height="10" rx="3" fill="#1a1a1c"/><rect x="60" y="100" width="10" height="10" rx="3" fill="#1a1a1c"/><rect x="100" y="100" width="10" height="10" rx="3" fill="#1a1a1c"/><rect x="110" y="100" width="10" height="10" rx="3" fill="#1a1a1c"/><rect x="120" y="100" width="10" height="10" rx="3" fill="#1a1a1c"/><rect x="140" y="100" width="10" height="10" rx="3" fill="#1a1a1c"/><rect x="150" y="100" width="10" height="10" rx="3" fill="#1a1a1c"/><rect x="160" y="100" width="10" height="10" rx="3" fill="#1a1a1c"/><rect x="170" y="100" width="10" height="10" rx="3" fill="#1a1a1c"/><rect x="180" y="100" width="10" height="10" rx="3" fill="#1a1a1c"/><rect x="190" y="100" width="10" height="10" rx="3" fill="#1a1a1c"/><rect x="200" y="100" width="10" height="10" rx="3" fill="#1a1a1c"/><rect x="210" y="100" width="10" height="10" rx="3" fill="#1a1a1c"/><rect x="220" y="100" width="10" height="10" rx="3" fill="#1a1a1c"/><rect x="230" y="100" width="10" height="10" rx="3" fill="#1a1a1c"/><rect x="240" y="100" width="10" height="10" rx="3" fill="#1a1a1c"/><rect x="20" y="110" width="10" height="10" rx="3" fill="#1a1a1c"/><rect x="30" y="110" width="10" height="10" rx="3" fill="#1a1a1c"/><rect x="40" y="110" width="10" height="10" rx="3" fill="#1a1a1c"/><rect x="50" y="110" width="10" height="10" rx="3" fill="#1a1a1c"/><rect x="70" y="110" width="10" height="10" rx="3" fill="#1a1a1c"/><rect x="120" y="110" width="10" height="10" rx="3" fill="#1a1a1c"/><rect x="130" y="110" width="10" height="10" rx="3" fill="#1a1a1c"/><rect x="140" y="110" width="10" height="10" rx="3" fill="#1a1a1c"/><rect x="150" y="110" width="10" height="10" rx="3" fill="#1a1a1c"/><rect x="170" y="110" width="10" height="10" rx="3" fill="#1a1a1c"/><rect x="180" y="110" width="10" height="10" rx="3" fill="#1a1a1c"/><rect x="210" y="110" width="10" height="10" rx="3" fill="#1a1a1c"/><rect x="230" y="110" width="10" height="10" rx="3" fill="#1a1a1c"/><rect x="30" y="120" width="10" height="10" rx="3" fill="#1a1a1c"/><rect x="40" y="120" width="10" height="10" rx="3" fill="#1a1a1c"/><rect x="50" y="120" width="10" height="10" rx="3" fill="#1a1a1c"/><rect x="60" y="120" width="10" height="10" rx="3" fill="#1a1a1c"/><rect x="100" y="120" width="10" height="10" rx="3" fill="#1a1a1c"/><rect x="110" y="120" width="10" height="10" rx="3" fill="#1a1a1c"/><rect x="180" y="120" width="10" height="10" rx="3" fill="#1a1a1c"/><rect x="200" y="120" width="10" height="10" rx="3" fill="#1a1a1c"/><rect x="210" y="120" width="10" height="10" rx="3" fill="#1a1a1c"/><rect x="220" y="120" width="10" height="10" rx="3" fill="#1a1a1c"/><rect x="230" y="120" width="10" height="10" rx="3" fill="#1a1a1c"/><rect x="240" y="120" width="10" height="10" rx="3" fill="#1a1a1c"/><rect x="20" y="130" width="10" height="10" rx="3" fill="#1a1a1c"/><rect x="70" y="130" width="10" height="10" rx="3" fill="#1a1a1c"/><rect x="80" y="130" width="10" height="10" rx="3" fill="#1a1a1c"/><rect x="90" y="130" width="10" height="10" rx="3" fill="#1a1a1c"/><rect x="100" y="130" width="10" height="10" rx="3" fill="#1a1a1c"/><rect x="110" y="130" width="10" height="10" rx="3" fill="#1a1a1c"/><rect x="180" y="130" width="10" height="10" rx="3" fill="#1a1a1c"/><rect x="240" y="130" width="10" height="10" rx="3" fill="#1a1a1c"/><rect x="10" y="140" width="10" height="10" rx="3" fill="#1a1a1c"/><rect x="40" y="140" width="10" height="10" rx="3" fill="#1a1a1c"/><rect x="50" y="140" width="10" height="10" rx="3" fill="#1a1a1c"/><rect x="60" y="140" width="10" height="10" rx="3" fill="#1a1a1c"/><rect x="90" y="140" width="10" height="10" rx="3" fill="#1a1a1c"/><rect x="100" y="140" width="10" height="10" rx="3" fill="#1a1a1c"/><rect x="110" y="140" width="10" height="10" rx="3" fill="#1a1a1c"/><rect x="140" y="140" width="10" height="10" rx="3" fill="#1a1a1c"/><rect x="180" y="140" width="10" height="10" rx="3" fill="#1a1a1c"/><rect x="200" y="140" width="10" height="10" rx="3" fill="#1a1a1c"/><rect x="210" y="140" width="10" height="10" rx="3" fill="#1a1a1c"/><rect x="10" y="150" width="10" height="10" rx="3" fill="#1a1a1c"/><rect x="40" y="150" width="10" height="10" rx="3" fill="#1a1a1c"/><rect x="50" y="150" width="10" height="10" rx="3" fill="#1a1a1c"/><rect x="70" y="150" width="10" height="10" rx="3" fill="#1a1a1c"/><rect x="80" y="150" width="10" height="10" rx="3" fill="#1a1a1c"/><rect x="100" y="150" width="10" height="10" rx="3" fill="#1a1a1c"/><rect x="110" y="150" width="10" height="10" rx="3" fill="#1a1a1c"/><rect x="120" y="150" width="10" height="10" rx="3" fill="#1a1a1c"/><rect x="140" y="150" width="10" height="10" rx="3" fill="#1a1a1c"/><rect x="180" y="150" width="10" height="10" rx="3" fill="#1a1a1c"/><rect x="230" y="150" width="10" height="10" rx="3" fill="#1a1a1c"/><rect x="240" y="150" width="10" height="10" rx="3" fill="#1a1a1c"/><rect x="0" y="160" width="10" height="10" rx="3" fill="#1a1a1c"/><rect x="10" y="160" width="10" height="10" rx="3" fill="#1a1a1c"/><rect x="30" y="160" width="10" height="10" rx="3" fill="#1a1a1c"/><rect x="60" y="160" width="10" height="10" rx="3" fill="#1a1a1c"/><rect x="80" y="160" width="10" height="10" rx="3" fill="#1a1a1c"/><rect x="120" y="160" width="10" height="10" rx="3" fill="#1a1a1c"/><rect x="140" y="160" width="10" height="10" rx="3" fill="#1a1a1c"/><rect x="150" y="160" width="10" height="10" rx="3" fill="#1a1a1c"/><rect x="210" y="160" width="10" height="10" rx="3" fill="#1a1a1c"/><rect x="160" y="170" width="10" height="10" rx="3" fill="#1a1a1c"/><rect x="200" y="170" width="10" height="10" rx="3" fill="#1a1a1c"/><rect x="210" y="170" width="10" height="10" rx="3" fill="#1a1a1c"/><rect x="220" y="170" width="10" height="10" rx="3" fill="#1a1a1c"/><rect x="230" y="170" width="10" height="10" rx="3" fill="#1a1a1c"/><rect x="240" y="170" width="10" height="10" rx="3" fill="#1a1a1c"/><rect x="80" y="180" width="10" height="10" rx="3" fill="#1a1a1c"/><rect x="120" y="180" width="10" height="10" rx="3" fill="#1a1a1c"/><rect x="150" y="180" width="10" height="10" rx="3" fill="#1a1a1c"/><rect x="180" y="180" width="10" height="10" rx="3" fill="#1a1a1c"/><rect x="200" y="180" width="10" height="10" rx="3" fill="#1a1a1c"/><rect x="240" y="180" width="10" height="10" rx="3" fill="#1a1a1c"/><rect x="80" y="190" width="10" height="10" rx="3" fill="#1a1a1c"/><rect x="100" y="190" width="10" height="10" rx="3" fill="#1a1a1c"/><rect x="110" y="190" width="10" height="10" rx="3" fill="#1a1a1c"/><rect x="120" y="190" width="10" height="10" rx="3" fill="#1a1a1c"/><rect x="140" y="190" width="10" height="10" rx="3" fill="#1a1a1c"/><rect x="160" y="190" width="10" height="10" rx="3" fill="#1a1a1c"/><rect x="170" y="190" width="10" height="10" rx="3" fill="#1a1a1c"/><rect x="180" y="190" width="10" height="10" rx="3" fill="#1a1a1c"/><rect x="210" y="190" width="10" height="10" rx="3" fill="#1a1a1c"/><rect x="80" y="200" width="10" height="10" rx="3" fill="#1a1a1c"/><rect x="90" y="200" width="10" height="10" rx="3" fill="#1a1a1c"/><rect x="100" y="200" width="10" height="10" rx="3" fill="#1a1a1c"/><rect x="120" y="200" width="10" height="10" rx="3" fill="#1a1a1c"/><rect x="130" y="200" width="10" height="10" rx="3" fill="#1a1a1c"/><rect x="140" y="200" width="10" height="10" rx="3" fill="#1a1a1c"/><rect x="170" y="200" width="10" height="10" rx="3" fill="#1a1a1c"/><rect x="180" y="200" width="10" height="10" rx="3" fill="#1a1a1c"/><rect x="220" y="200" width="10" height="10" rx="3" fill="#1a1a1c"/><rect x="230" y="200" width="10" height="10" rx="3" fill="#1a1a1c"/><rect x="80" y="210" width="10" height="10" rx="3" fill="#1a1a1c"/><rect x="90" y="210" width="10" height="10" rx="3" fill="#1a1a1c"/><rect x="130" y="210" width="10" height="10" rx="3" fill="#1a1a1c"/><rect x="150" y="210" width="10" height="10" rx="3" fill="#1a1a1c"/><rect x="180" y="210" width="10" height="10" rx="3" fill="#1a1a1c"/><rect x="210" y="210" width="10" height="10" rx="3" fill="#1a1a1c"/><rect x="220" y="210" width="10" height="10" rx="3" fill="#1a1a1c"/><rect x="240" y="210" width="10" height="10" rx="3" fill="#1a1a1c"/><rect x="80" y="220" width="10" height="10" rx="3" fill="#1a1a1c"/><rect x="90" y="220" width="10" height="10" rx="3" fill="#1a1a1c"/><rect x="100" y="220" width="10" height="10" rx="3" fill="#1a1a1c"/><rect x="110" y="220" width="10" height="10" rx="3" fill="#1a1a1c"/><rect x="120" y="220" width="10" height="10" rx="3" fill="#1a1a1c"/><rect x="130" y="220" width="10" height="10" rx="3" fill="#1a1a1c"/><rect x="150" y="220" width="10" height="10" rx="3" fill="#1a1a1c"/><rect x="170" y="220" width="10" height="10" rx="3" fill="#1a1a1c"/><rect x="180" y="220" width="10" height="10" rx="3" fill="#1a1a1c"/><rect x="190" y="220" width="10" height="10" rx="3" fill="#1a1a1c"/><rect x="200" y="220" width="10" height="10" rx="3" fill="#1a1a1c"/><rect x="210" y="220" width="10" height="10" rx="3" fill="#1a1a1c"/><rect x="240" y="220" width="10" height="10" rx="3" fill="#1a1a1c"/><rect x="100" y="230" width="10" height="10" rx="3" fill="#1a1a1c"/><rect x="120" y="230" width="10" height="10" rx="3" fill="#1a1a1c"/><rect x="150" y="230" width="10" height="10" rx="3" fill="#1a1a1c"/><rect x="190" y="230" width="10" height="10" rx="3" fill="#1a1a1c"/><rect x="230" y="230" width="10" height="10" rx="3" fill="#1a1a1c"/><rect x="240" y="230" width="10" height="10" rx="3" fill="#1a1a1c"/><rect x="80" y="240" width="10" height="10" rx="3" fill="#1a1a1c"/><rect x="90" y="240" width="10" height="10" rx="3" fill="#1a1a1c"/><rect x="100" y="240" width="10" height="10" rx="3" fill="#1a1a1c"/><rect x="120" y="240" width="10" height="10" rx="3" fill="#1a1a1c"/><rect x="130" y="240" width="10" height="10" rx="3" fill="#1a1a1c"/><rect x="140" y="240" width="10" height="10" rx="3" fill="#1a1a1c"/><rect x="180" y="240" width="10" height="10" rx="3" fill="#1a1a1c"/><rect x="190" y="240" width="10" height="10" rx="3" fill="#1a1a1c"/><rect x="200" y="240" width="10" height="10" rx="3" fill="#1a1a1c"/><rect x="220" y="240" width="10" height="10" rx="3" fill="#1a1a1c"/><rect x="230" y="240" width="10" height="10" rx="3" fill="#1a1a1c"/><rect x="240" y="240" width="10" height="10" rx="3" fill="#1a1a1c"/><rect x="0" y="0" width="70" height="70" rx="16.0" fill="#1a1a1c"/><rect x="10" y="10" width="50" height="50" rx="11.0" fill="white"/><rect x="20" y="20" width="30" height="30" rx="8.0" fill="#1a1a1c"/><rect x="180" y="0" width="70" height="70" rx="16.0" fill="#1a1a1c"/><rect x="190" y="10" width="50" height="50" rx="11.0" fill="white"/><rect x="200" y="20" width="30" height="30" rx="8.0" fill="#1a1a1c"/><rect x="0" y="180" width="70" height="70" rx="16.0" fill="#1a1a1c"/><rect x="10" y="190" width="50" height="50" rx="11.0" fill="white"/><rect x="20" y="200" width="30" height="30" rx="8.0" fill="#1a1a1c"/></svg>